<svg width="32" height="32" viewBox="0 0 32 32" fill="none" xmlns="http://www.w3.org/2000/svg">
<path fill-rule="evenodd" clip-rule="evenodd" d="M26.6667 12V25.3333C26.6667 26.8061 25.4728 28 24.0001 28H8.00008C6.52732 28 5.33341 26.8061 5.33341 25.3333V12C3.86066 12 2.66675 10.8061 2.66675 9.33333V6.66667C2.66675 5.19391 3.86066 4 5.33341 4H26.6667C28.1395 4 29.3334 5.19391 29.3334 6.66667V9.33333C29.3334 10.8061 28.1395 12 26.6667 12ZM8.00008 12V25.3333H24.0001V12H8.00008ZM12.0001 16V13.3333H20.0001V16H12.0001ZM5.33341 6.66667V9.33333H26.6667V6.66667H5.33341Z" fill="#646363"/>
</svg>
