<svg width="32" height="32" viewBox="0 0 32 32" fill="none" xmlns="http://www.w3.org/2000/svg">
<path fill-rule="evenodd" clip-rule="evenodd" d="M9.24952 7.79383C9.34399 7.66251 9.4489 7.50174 9.58269 7.28496C9.65766 7.16348 9.93119 6.71102 9.9759 6.63788C11.0812 4.82985 11.8847 4 13.3335 4H18.6668C20.1156 4 20.9191 4.82985 22.0244 6.63788C22.0691 6.71102 22.3427 7.16348 22.4176 7.28496C22.5514 7.50174 22.6563 7.66251 22.7508 7.79383C22.8131 7.88044 22.8675 7.94925 22.9119 8H26.6668C28.876 8 30.6668 9.79086 30.6668 12V24C30.6668 26.2091 28.876 28 26.6668 28H5.3335C3.12436 28 1.3335 26.2091 1.3335 24V12C1.3335 9.79086 3.12436 8 5.3335 8H9.08842C9.13281 7.94925 9.18723 7.88044 9.24952 7.79383ZM5.3335 10.6667C4.59712 10.6667 4.00016 11.2636 4.00016 12V24C4.00016 24.7364 4.59712 25.3333 5.3335 25.3333H26.6668C27.4032 25.3333 28.0002 24.7364 28.0002 24V12C28.0002 11.2636 27.4032 10.6667 26.6668 10.6667H22.6668C21.781 10.6667 21.1837 10.1819 20.586 9.35101C20.4485 9.15984 20.3123 8.95109 20.1483 8.68545C20.0655 8.55131 19.7879 8.09211 19.7492 8.02878C19.1462 7.0423 18.7825 6.66667 18.6668 6.66667H13.3335C13.2179 6.66667 12.8542 7.0423 12.2511 8.02878C12.2124 8.09211 11.9348 8.55131 11.852 8.68545C11.6881 8.95109 11.5518 9.15984 11.4143 9.35101C10.8167 10.1819 10.2193 10.6667 9.3335 10.6667H5.3335ZM25.3335 14.6667C26.0699 14.6667 26.6668 14.0697 26.6668 13.3333C26.6668 12.597 26.0699 12 25.3335 12C24.5971 12 24.0002 12.597 24.0002 13.3333C24.0002 14.0697 24.5971 14.6667 25.3335 14.6667ZM16.0002 24C12.3183 24 9.3335 21.0152 9.3335 17.3333C9.3335 13.6514 12.3183 10.6667 16.0002 10.6667C19.6821 10.6667 22.6668 13.6514 22.6668 17.3333C22.6668 21.0152 19.6821 24 16.0002 24ZM16.0002 21.3333C18.2093 21.3333 20.0002 19.5425 20.0002 17.3333C20.0002 15.1242 18.2093 13.3333 16.0002 13.3333C13.791 13.3333 12.0002 15.1242 12.0002 17.3333C12.0002 19.5425 13.791 21.3333 16.0002 21.3333Z" fill="#646363"/>
</svg>
