<svg width="32" height="32" viewBox="0 0 32 32" fill="none" xmlns="http://www.w3.org/2000/svg">
<path fill-rule="evenodd" clip-rule="evenodd" d="M26.439 21.3334H27.9999V16.7137L24.299 14.2464L21.8425 9.33342H3.99992V21.3334H5.56086C6.10997 19.7798 7.59163 18.6667 9.33325 18.6667C11.0749 18.6667 12.5565 19.7798 13.1056 21.3334H18.8942C19.4433 19.7798 20.925 18.6667 22.6666 18.6667C24.4082 18.6667 25.8899 19.7798 26.439 21.3334ZM26.439 24.0001C25.8899 25.5537 24.4082 26.6667 22.6666 26.6667C20.925 26.6667 19.4433 25.5537 18.8942 24.0001H13.1056C12.5565 25.5537 11.0749 26.6667 9.33325 26.6667C7.59163 26.6667 6.10997 25.5537 5.56086 24.0001H3.99992C2.52716 24.0001 1.33325 22.8062 1.33325 21.3334V9.33342C1.33325 7.86066 2.52716 6.66675 3.99992 6.66675H21.8425C22.8526 6.66675 23.776 7.23742 24.2277 8.14085L26.3675 12.4204L30.6666 15.2865V21.3334C30.6666 22.8062 29.4727 24.0001 27.9999 24.0001H26.439ZM9.33325 24.0001C10.0696 24.0001 10.6666 23.4031 10.6666 22.6667C10.6666 21.9304 10.0696 21.3334 9.33325 21.3334C8.59687 21.3334 7.99992 21.9304 7.99992 22.6667C7.99992 23.4031 8.59687 24.0001 9.33325 24.0001ZM22.6666 24.0001C23.403 24.0001 23.9999 23.4031 23.9999 22.6667C23.9999 21.9304 23.403 21.3334 22.6666 21.3334C21.9302 21.3334 21.3332 21.9304 21.3332 22.6667C21.3332 23.4031 21.9302 24.0001 22.6666 24.0001Z" fill="#646363"/>
</svg>
