<svg width="32" height="32" viewBox="0 0 32 32" fill="none" xmlns="http://www.w3.org/2000/svg">
<path fill-rule="evenodd" clip-rule="evenodd" d="M15.9999 30.6666C7.89974 30.6666 1.33325 24.1001 1.33325 15.9999C1.33325 7.89974 7.89974 1.33325 15.9999 1.33325C24.1001 1.33325 30.6666 7.89974 30.6666 15.9999C30.6666 24.1001 24.1001 30.6666 15.9999 30.6666ZM15.9999 27.9999C22.6273 27.9999 27.9999 22.6273 27.9999 15.9999C27.9999 9.3725 22.6273 3.99992 15.9999 3.99992C9.3725 3.99992 3.99992 9.3725 3.99992 15.9999C3.99992 22.6273 9.3725 27.9999 15.9999 27.9999ZM10.1088 23.918L11.2339 17.3582L6.46797 12.7126L13.0544 11.7555L15.9999 5.78719L18.9454 11.7555L25.5319 12.7126L20.7659 17.3582L21.891 23.918L15.9999 20.8209L10.1088 23.918ZM15.9999 17.8082L18.3493 19.0433L17.9006 16.4272L19.8013 14.5745L17.1746 14.1928L15.9999 11.8127L14.8252 14.1928L12.1985 14.5745L14.0992 16.4272L13.6505 19.0433L15.9999 17.8082Z" fill="#646363"/>
</svg>
